<svg xmlns="http://www.w3.org/2000/svg" fill="none" viewBox="0 0 252 164"><path fill="#AC25FF" d="M.513255 85.4802 70.8972 14.5714l21.1319 7.4298L102.792 121.44l-26.083-9.17-2.0343-26.6304 7.2337 10.6841-49.3883-17.3644 12.2076-3.8488-18.2524 19.4977-25.962045-9.128ZM72.0625 44.8309 49.1382 70.2842l-1.2451-8.0359 32.4828 11.4206-5.6378 5.6159-2.0719-34.2416-.6037-.2123ZM111.415 97.743l6.793-19.3206 41.056 14.435-6.793 19.3206-41.056-14.435Zm42.825 41.786 6.708-19.079 58.829-37.6593-2.463 7.0037-40.573-14.2652 7.43-21.1319 65.328 22.9686-6.708 19.0791-58.83 37.659 2.463-7.004 42.505 14.945-7.43 21.132-67.259-23.648Z"/></svg>