<svg xmlns="http://www.w3.org/2000/svg" fill="none" viewBox="0 0 159 124"><path fill="#AC25FF" d="M.249807 75.7964 27.5269.962728 53.4862 10.425l-4.6849 12.8528-8.7095-3.1747-17.9073 49.1281 8.7095 3.1747-4.6849 12.8528L.249807 75.7964ZM53.2605 79.0259c-3.6078-1.3151-6.4335-3.1114-8.4771-5.389-2.023-2.3339-3.2822-4.8365-3.7773-7.5076-.4747-2.7274-.2702-5.3032.6133-7.7272 1.1096-3.044 2.7363-5.2291 4.88-6.5551 2.1643-1.3824 5.102-1.9082 8.8131-1.5773 3.711.331 8.4415 1.5443 14.1915 3.6402l4.1433 1.5103-2.8972 7.9484-4.4816-1.6335c-1.6911-.6165-3.2005-.9431-4.5282-.98-1.2713-.0164-2.3402.2007-3.2069.6511-.7897.4146-1.3387 1.0447-1.6469 1.8903-.3904 1.0711-.3425 2.0784.1437 3.022.5427.9641 1.575 1.7236 3.0971 2.2783 1.1838.4315 2.3473.5683 3.4906.4102 1.1996-.1374 2.2456-.5544 3.1381-1.2509.913-.7528 1.5956-1.7494 2.0476-2.9895l3.7911-10.4007c.5753-1.5784.4687-2.8625-.32-3.8525-.7681-1.0463-2.2796-1.9804-4.5345-2.8023-2.2549-.822-4.5459-1.3696-6.8729-1.6431-2.3271-.2735-4.9363-.2985-7.8276-.0752l-.2053-13.1026c2.8044-.5105 6.0801-.5618 9.827-.1539 3.7469.4078 7.3679 1.2487 10.8629 2.5226 3.7206 1.3562 6.8437 3.0374 9.3693 5.0437 2.5821 2.0268 4.3001 4.4092 5.154 7.1472l-3.636-1.3253c3.0716-1.2433 5.9376-1.9229 8.5981-2.0388 2.6812-.1722 5.4874.2759 8.4183 1.3444 6.089 2.2191 10.189 5.949 12.302 11.1895 2.19 5.2047 2.001 11.3303-.567 18.3768l-1.233 3.3823-27.1433-9.8937 2.8972-7.9484 14.0371 5.1163-2.0236 1.0827c1.0276-2.8186 1.2596-5.0329.6976-6.643-.5067-1.5895-1.5491-2.6719-3.1275-3.2472-1.973-.7192-3.7827-.4848-5.4291.7032-1.5695 1.1522-2.981 3.4476-4.2344 6.8863l-.3082.8456c-1.3767 3.7769-1.6096 6.6935-.6987 8.7498.9109 2.0563 3.0011 3.6803 6.2707 4.8721 2.1421.7808 4.2998 1.3438 6.473 1.6889 2.1942.2887 4.3592.2161 6.4972-.218l.236 13.018c-2.789.6438-5.811.7875-9.0655.4313-3.1779-.392-6.3734-1.1736-9.5866-2.3448-4.848-1.7671-8.637-4.0742-11.3671-6.9213-2.6737-2.8266-4.3859-6.1009-5.1366-9.8231l2.6213.9555c-2.3292 2.5356-5.2395 4.1251-8.7309 4.7683-3.4708.5869-7.3202.1097-11.5481-1.4313Zm52.0145 35.0521 4.684-12.852 8.71 3.174 17.907-49.128-8.709-3.1746 4.685-12.8528 25.959 9.4622-27.277 74.8342-25.959-9.463Z"/></svg>