<svg xmlns="http://www.w3.org/2000/svg" fill="none" viewBox="0 0 32 40">
    <path fill="#FFF" fill-rule="evenodd" d="M7.17071 7H4c-.55228 0-1 .44772-1 1s.44772 1 1 1h3.17071C7.58254 10.1652 8.69378 11 10 11c1.3062 0 2.4175-.8348 2.8293-2H28c.5523 0 1-.44772 1-1s-.4477-1-1-1H12.8293C12.4175 5.83481 11.3062 5 10 5c-1.30622 0-2.41746.83481-2.82929 2ZM9 8c0-.55228.44772-1 1-1 .5523 0 1 .44772 1 1s-.4477 1-1 1c-.55228 0-1-.44772-1-1Z" clip-rule="evenodd"/>
    <path fill="#FFF" fill-rule="evenodd" d="M25 13c1.3062 0 2.4175.8348 2.8293 2H28c.5523 0 1 .4477 1 1s-.4477 1-1 1h-.1707c-.4118 1.1652-1.5231 2-2.8293 2s-2.4175-.8348-2.8293-2H4c-.55228 0-1-.4477-1-1s.44771-1 1-1h18.1707c.4118-1.1652 1.5231-2 2.8293-2Zm-1 3c0-.5523.4477-1 1-1s1 .4477 1 1-.4477 1-1 1-1-.4477-1-1Z" clip-rule="evenodd"/>
    <path fill="#FFF" fill-rule="evenodd" d="M17.8293 23c-.4118-1.1652-1.5231-2-2.8293-2s-2.4175.8348-2.8293 2H4c-.55228 0-1 .4477-1 1s.44772 1 1 1h8.1707c.4118 1.1652 1.5231 2 2.8293 2s2.4175-.8348 2.8293-2H28c.5523 0 1-.4477 1-1s-.4477-1-1-1H17.8293ZM15 23c-.5523 0-1 .4477-1 1s.4477 1 1 1 1-.4477 1-1-.4477-1-1-1Z" clip-rule="evenodd"/>
</svg>