<svg xmlns="http://www.w3.org/2000/svg" fill="none" viewBox="0 0 223 43">
        <path fill="#FFF" d="M0 33.6244V2.25867h9.45876c3.18154 0 5.89024.46879 8.12594 1.40635 2.2357.93756 4.0271 2.18763 5.3743 3.75024 1.3758 1.56262 2.3789 3.30994 3.0096 5.24184.6307 1.9319.9459 3.8781.9459 5.8384 0 2.3297-.43 4.4321-1.2899 6.3073-.8311 1.8466-1.9777 3.4378-3.4395 4.773-1.4618 1.307-3.1529 2.3154-5.0733 3.0258-1.9205.6818-3.9555 1.0228-6.1052 1.0228H0Zm6.23418-5.9663H9.9317c1.5765 0 3.0096-.199 4.2994-.5967 1.2899-.4261 2.3934-1.0369 3.3106-1.8325.9459-.7955 1.6625-1.7899 2.1497-2.9831.516-1.2217.7739-2.6138.7739-4.1764 0-2.0456-.3439-3.7077-1.0318-4.9861-.6593-1.307-1.4905-2.3155-2.4937-3.0258-.9746-.7103-1.9778-1.19328-3.0096-1.44897-1.0319-.28412-1.9061-.42617-2.6227-.42617H6.23418V27.6581Zm33.42762 6.4777c-1.7486 0-3.3393-.341-4.7724-1.0228-1.4046-.7104-2.5224-1.7899-3.3536-3.2389-.8314-1.4489-1.2468-3.2956-1.2468-5.5401 0-2.1024.4299-3.9207 1.2898-5.4549.8599-1.5342 1.992-2.7133 3.3966-3.5372 1.4043-.8523 2.8949-1.2785 4.4714-1.2785 1.863 0 3.2676.3125 4.2134.9376.9744.5966 1.7771 1.2643 2.4077 2.003l-.2579.7244.5589-2.7274h5.5893v18.6234H45.939v-4.0486l.4729 1.2785c-.0575 0-.2295.1705-.5159.5114-.2868.3124-.7167.696-1.2899 1.1506-.5447.4262-1.2326.7956-2.0637 1.1081-.8027.3409-1.7628.5114-2.8806.5114Zm1.7197-4.8583c.7164 0 1.3614-.0993 1.9348-.2983.5732-.2272 1.0749-.5399 1.5048-.9376.4299-.4261.8024-.9517 1.1179-1.5768v-4.5599c-.2295-.6251-.5735-1.1507-1.0319-1.5769-.4587-.4545-1.0034-.7955-1.6338-1.0227-.6307-.2557-1.3328-.3836-2.1067-.3836-.8599 0-1.6626.2273-2.4077.6819-.7167.4261-1.2898 1.0228-1.7198 1.7899-.4299.7671-.6449 1.6478-.6449 2.6422s.2292 1.8892.6879 2.6848c.4584.7956 1.0604 1.4205 1.8058 1.8751.7739.4547 1.605.6819 2.4936.6819ZM57.7304 15.001h6.0192v18.6234h-6.0192V15.001Zm-.129-6.60556c0-.88075.344-1.60523 1.0319-2.17344.7164-.56821 1.4761-.85232 2.2787-.85232.8024 0 1.5333.28411 2.1927.85232.6879.56821 1.0319 1.29269 1.0319 2.17344 0 .88075-.344 1.60526-1.0319 2.17346-.6594.5398-1.3903.8097-2.1927.8097-.8026 0-1.5623-.2699-2.2787-.8097-.6879-.5682-1.0319-1.29271-1.0319-2.17346ZM69.5187 0h6.0192v33.6244h-6.0192V0Zm13.2928 42.5738L95.3228 15.001h5.4172L88.6157 42.5738h-5.8042Zm5.0303-8.8642L78.641 15.001h6.7501l7.0941 15.7255-4.6434 2.9831ZM104.832 2.25867h6.235V27.6581h14.876v5.9663h-21.111V2.25867Zm34.036 31.87713c-1.749 0-3.34-.341-4.773-1.0228-1.404-.7104-2.522-1.7899-3.353-3.2389-.831-1.4489-1.247-3.2956-1.247-5.5401 0-2.1024.43-3.9207 1.29-5.4549.86-1.5342 1.992-2.7133 3.396-3.5372 1.405-.8523 2.895-1.2785 4.472-1.2785 1.863 0 3.267.3125 4.213.9376.975.5966 1.777 1.2643 2.408 2.003l-.258.7244.559-2.7274h5.589v18.6234h-6.019v-4.0486l.473 1.2785c-.057 0-.229.1705-.516.5114-.287.3124-.717.696-1.29 1.1506-.545.4262-1.232.7956-2.064 1.1081-.802.3409-1.762.5114-2.88.5114Zm1.72-4.8583c.716 0 1.361-.0993 1.934-.2983.573-.2272 1.075-.5399 1.505-.9376.43-.4261.803-.9517 1.118-1.5768v-4.5599c-.229-.6251-.573-1.1507-1.032-1.5769-.459-.4545-1.003-.7955-1.634-1.0227-.63-.2557-1.333-.3836-2.106-.3836-.86 0-1.663.2273-2.408.6819-.717.4261-1.29 1.0228-1.72 1.7899-.43.7671-.645 1.6478-.645 2.6422s.229 1.8892.688 2.6848c.459.7956 1.061 1.4205 1.806 1.8751.774.4547 1.605.6819 2.494.6819Zm21.809-14.2765.473 3.3241-.086-.2983c.659-1.1649 1.59-2.1024 2.794-2.8127 1.204-.7387 2.68-1.1081 4.429-1.1081 1.777 0 3.253.5256 4.428 1.5769 1.204 1.0228 1.82 2.3581 1.849 4.0059v13.9356h-6.019V21.9049c-.029-.824-.258-1.4774-.688-1.9604-.401-.5114-1.089-.7671-2.064-.7671-.917 0-1.72.2983-2.408.8949-.688.5967-1.218 1.4064-1.59 2.4292-.373 1.0228-.559 2.2018-.559 3.5372v7.5857h-6.02V15.001h5.461ZM191.751 43c-1.691 0-3.124-.199-4.299-.5966-1.147-.3977-2.121-.8809-2.924-1.449-.802-.5681-1.519-1.108-2.15-1.6194l3.526-4.0912c.659.5966 1.419 1.1648 2.279 1.7047.888.5681 2.049.8523 3.482.8523.946 0 1.82-.1705 2.623-.5114.831-.3124 1.49-.7812 1.978-1.4064.515-.6251.773-1.4063.773-2.3439V29.448l.215 1.0654c-.458.966-1.289 1.8184-2.493 2.557-1.204.7103-2.78 1.0654-4.73 1.0654-1.691 0-3.267-.4262-4.729-1.2785-1.433-.8808-2.58-2.0597-3.44-3.5372-.859-1.5057-1.289-3.2103-1.289-5.114 0-1.9603.458-3.6934 1.375-5.1992.918-1.5342 2.107-2.7416 3.569-3.6224 1.462-.8807 3.01-1.3211 4.643-1.3211 1.634 0 3.039.2415 4.214.7245 1.204.4546 2.107 1.0228 2.708 1.7047l-.215.554.645-2.0456h5.547v18.6234c0 1.8184-.516 3.4234-1.548 4.8156-1.032 1.4205-2.408 2.5285-4.128 3.3241-1.691.8238-3.568 1.2359-5.632 1.2359Zm-5.116-18.9643c0 .9944.229 1.8892.688 2.6848.458.7956 1.075 1.4205 1.848 1.8751.803.4547 1.692.6819 2.666.6819.832 0 1.562-.0993 2.193-.2983.659-.2272 1.232-.5399 1.72-.9376.516-.4261.946-.9517 1.289-1.5768v-4.5599c-.257-.6251-.644-1.1507-1.16-1.5769-.516-.4545-1.118-.7955-1.806-1.0227-.659-.2557-1.404-.3836-2.236-.3836-.974 0-1.863.2273-2.666.6819-.773.4261-1.39 1.0228-1.848 1.7899-.459.7671-.688 1.6478-.688 2.6422Zm28.282 9.9722c-1.548 0-2.995-.2698-4.342-.8097-1.319-.5399-2.437-1.2926-3.354-2.2587l2.494-3.2814c.917.8238 1.763 1.4204 2.536 1.7899.803.3409 1.52.5114 2.15.5114.488 0 .918-.0427 1.29-.1279.401-.1137.717-.2698.946-.4688.229-.2272.344-.5114.344-.8523 0-.4829-.201-.8664-.602-1.1506-.373-.2842-.86-.5114-1.462-.6819-.602-.199-1.247-.3977-1.935-.5966-1.719-.5398-2.966-1.3211-3.74-2.3439-.745-1.0513-1.118-2.1877-1.118-3.4094 0-.9375.244-1.8751.731-2.8126.516-.966 1.318-1.7615 2.408-2.3866 1.117-.6534 2.551-.9801 4.299-.9801 1.577 0 2.909.1562 3.998.4687 1.09.3126 2.122.824 3.096 1.5342l-2.279 3.4946c-.544-.4262-1.161-.7813-1.848-1.0654-.66-.3125-1.276-.483-1.849-.5114-.516-.0284-.96.0284-1.333.1704-.344.1421-.616.3268-.817.5541-.2.2272-.301.4687-.301.7244-.028.5399.172.966.602 1.2785.459.3125 1.032.554 1.72.7245.688.1705 1.361.3694 2.021.5966.917.2842 1.705.6677 2.364 1.1507.66.483 1.161 1.0654 1.505 1.7473.373.6533.559 1.4489.559 2.3865 0 1.1365-.301 2.216-.903 3.2388-.573.9943-1.462 1.804-2.666 2.4292-1.175.6251-2.679.9375-4.514.9375Z"/>
</svg>