<svg xmlns="http://www.w3.org/2000/svg" fill="none" viewBox="0 0 141 141"><path fill="#FFFD50" d="M65.9483 3.01179c1.7765-3.907543 7.3269-3.907549 9.1034-.00001L93.9461 44.5715c.5002 1.1003 1.3821 1.9822 2.4823 2.4824l41.5596 18.8944c3.908 1.7765 3.908 7.3269 0 9.1034L96.4284 93.9461c-1.1002.5002-1.9821 1.3821-2.4823 2.4823L75.0517 137.988c-1.7765 3.908-7.3269 3.908-9.1034 0L47.0539 96.4284c-.5002-1.1002-1.3821-1.9821-2.4823-2.4823L3.01179 75.0517c-3.907543-1.7765-3.90755-7.3269-.00001-9.1034L44.5715 47.0539c1.1003-.5002 1.9822-1.3821 2.4824-2.4823L65.9483 3.01179Z"/></svg>